<svg xmlns="http://www.w3.org/2000/svg" xmlns:svg="http://www.w3.org/2000/svg" id="svg5" width="72" height="72" version="1.1" viewBox="0 0 19.05 19.05"><defs id="defs2"><clipPath id="clipPath7860" clipPathUnits="userSpaceOnUse"><circle style="display:inline;opacity:1;fill:#000;fill-opacity:1;stroke:none;stroke-width:2.93688;stroke-linecap:round" id="circle7862" cx="115.273" cy="135.327" r="9.141"/></clipPath><clipPath id="clipPath7864" clipPathUnits="userSpaceOnUse"><circle style="display:inline;opacity:1;fill:#000;fill-opacity:1;stroke:none;stroke-width:2.93688;stroke-linecap:round" id="circle7866" cx="115.273" cy="135.327" r="9.141"/></clipPath></defs><g id="layer1" transform="translate(-106.13256,-126.18696)" style="display:none"><path style="fill:none;stroke:#000;stroke-width:.264583px;stroke-linecap:butt;stroke-linejoin:miter;stroke-opacity:1" id="path1824" d="m 114.7741,133.0871 c 0,0 2.24373,3.38322 0.005,7.06735 -2.23896,3.68413 -8.84476,5.87171 -8.84476,5.87171"/><path style="fill:none;stroke:#000;stroke-width:.264583px;stroke-linecap:butt;stroke-linejoin:miter;stroke-opacity:1" id="path857" d="m 99.71221,140.61603 c 0,0 6.55112,-0.26544 10.1251,-2.27285 3.57398,-2.00741 4.93679,-5.25608 4.93679,-5.25608"/><path style="fill:none;stroke:#000;stroke-width:.264583px;stroke-linecap:butt;stroke-linejoin:miter;stroke-opacity:1" id="path949" d="m 114.7741,133.0871 c 0,0 3.22515,3.50294 1.78507,7.47454 -1.44009,3.97159 -7.66948,7.78507 -7.66948,7.78507"/><path style="fill:none;stroke:#000;stroke-width:.264583px;stroke-linecap:butt;stroke-linejoin:miter;stroke-opacity:1" id="path1345" d="m 114.7741,133.0871 c 0,0 6.66681,-0.12736 17.37373,8.90799"/></g><g id="g3632" transform="translate(-106.13256,-126.18696)"><rect style="display:inline;fill:#1b1b1b;fill-opacity:1;stroke:none;stroke-width:2.81834;stroke-linecap:round" id="rect6284" width="18.281" height="18.281" x="106.133" y="126.187" clip-path="url(#clipPath7864)" transform="matrix(1.0420598,0,0,1.0420598,-4.4639102,-5.3073932)"/><g id="g937" clip-path="url(#clipPath7860)" mask="none" transform="matrix(1.0420598,0,0,1.0420598,-4.4639102,-5.3073932)" style="display:inline;stroke-width:.959638"><path id="path935" d="m 132.14783,141.99509 c -10.70692,-9.03535 -17.37373,-8.90799 -17.37373,-8.90799 0,0 2.38807,3.48286 0.94799,7.45446 -1.44009,3.97159 -7.66636,7.74668 -7.66636,7.74668 z" style="fill:#fff;fill-opacity:1;stroke:none;stroke-width:.253904px;stroke-linecap:butt;stroke-linejoin:miter;stroke-opacity:1"/><path id="path931" d="m 108.88969,148.34671 c 0,0 6.22939,-3.81348 7.66948,-7.78507 1.44008,-3.9716 -1.78507,-7.47454 -1.78507,-7.47454 0,0 1.22037,3.09102 -1.01836,6.77515 -2.23896,3.68413 -8.92258,4.9787 -8.92258,4.9787 z" style="fill:#e7e7e7;fill-opacity:1;stroke:none;stroke-width:.253904px;stroke-linecap:butt;stroke-linejoin:miter;stroke-opacity:1"/><path id="path933" d="m 105.93434,146.02616 c 0,0 6.6058,-2.18758 8.84476,-5.87171 2.23873,-3.68413 -0.005,-7.06735 -0.005,-7.06735 0,0 -1.36281,3.24867 -4.93679,5.25608 -3.57398,2.00741 -10.1251,2.27285 -10.1251,2.27285 z" style="fill:#c6c6c6;fill-opacity:1;stroke:none;stroke-width:.253904px;stroke-linecap:butt;stroke-linejoin:miter;stroke-opacity:1"/></g></g></svg>